<?xml version="1.0" standalone="no"?>
<!DOCTYPE svg PUBLIC "-//W3C//DTD SVG 20010904//EN"
 "http://www.w3.org/TR/2001/REC-SVG-20010904/DTD/svg10.dtd">
<svg version="1.0" xmlns="http://www.w3.org/2000/svg"
 width="96.000000pt" height="96.000000pt" viewBox="0 0 96.000000 96.000000"
 preserveAspectRatio="xMidYMid meet">
<metadata>
Created by potrace 1.14, written by Peter Selinger 2001-2017
</metadata>
<g transform="translate(0.000000,96.000000) scale(0.100000,-0.100000)"
fill="#000000" stroke="none">
<path d="M450 805 c-18 -22 2 -65 30 -65 28 0 48 43 30 65 -7 8 -20 15 -30 15
-10 0 -23 -7 -30 -15z"/>
<path d="M410 610 c-35 -66 -68 -120 -73 -120 -5 0 -47 30 -93 68 -47 37 -89
68 -94 70 -7 3 -4 -14 14 -88 63 -246 76 -307 76 -349 l0 -51 240 0 240 0 0
50 c0 40 63 322 97 434 3 11 -35 -14 -95 -63 -56 -44 -103 -78 -105 -74 -3 5
-22 40 -42 78 -65 122 -90 165 -95 165 -3 0 -34 -54 -70 -120z"/>
<path d="M90 705 c-17 -21 2 -65 29 -65 30 0 46 26 33 55 -13 28 -43 33 -62
10z"/>
<path d="M812 708 c-20 -20 -14 -48 13 -60 45 -20 79 38 36 62 -25 13 -34 13
-49 -2z"/>
</g>
</svg>
